<svg width="160" height="160" viewBox="0 0 160 160" fill="none" xmlns="http://www.w3.org/2000/svg" role="img" aria-labelledby="title desc">
  <title id="title">Align Logo Dark Variant</title>
  <desc id="desc">Stylized A with gradients optimized for dark backgrounds.</desc>
  <defs>
    <linearGradient id="dGradA" x1="0" y1="0" x2="160" y2="160" gradientUnits="userSpaceOnUse">
      <stop offset="0%" stop-color="#3B82F6" />
      <stop offset="55%" stop-color="#6366F1" />
      <stop offset="100%" stop-color="#A855F7" />
    </linearGradient>
    <linearGradient id="dGradB" x1="160" y1="0" x2="0" y2="160" gradientUnits="userSpaceOnUse">
      <stop offset="0%" stop-color="#C084FC" />
      <stop offset="50%" stop-color="#6366F1" />
      <stop offset="100%" stop-color="#3B82F6" />
    </linearGradient>
    <filter id="dSoft" x="-20%" y="-20%" width="140%" height="140%" color-interpolation-filters="sRGB">
      <feGaussianBlur in="SourceGraphic" stdDeviation="5" />
    </filter>
  </defs>
  <path d="M46 140L18 140L70 20C73 13 79 8 86.5 8C94 8 100 13 103 20L155 140H127L100.5 75C97.5 68 92.5 64.5 86.5 64.5C80.5 64.5 75.5 68 72.5 75L46 140Z" fill="url(#dGradA)" />
  <path d="M127 140H155L118 59.5C115 53.5 108.5 48 100.5 48C92.5 48 86 53.5 83 59.5L66 96L72.5 75C75.5 68 80.5 64.5 86.5 64.5C92.5 64.5 97.5 68 100.5 75L127 140Z" fill="url(#dGradB)" opacity="0.6" />
  <circle cx="86.5" cy="102" r="15" fill="#0F172A" />
  <circle cx="86.5" cy="102" r="11" fill="url(#dGradB)" />
  <g filter="url(#dSoft)" opacity="0.55">
    <circle cx="86" cy="102" r="34" fill="url(#dGradA)" />
  </g>
</svg>