<svg width="160" height="160" viewBox="0 0 160 160" fill="none" xmlns="http://www.w3.org/2000/svg" role="img" aria-labelledby="title desc">
  <title id="title">Align Logo</title>
  <desc id="desc">Stylized letter A formed by two converging gradient shapes with a centered balance circle symbolizing mediation and clarity.</desc>
  <defs>
    <linearGradient id="gradA" x1="0" y1="0" x2="160" y2="160" gradientUnits="userSpaceOnUse">
      <stop offset="0%" stop-color="#2563EB" />
      <stop offset="55%" stop-color="#6366F1" />
      <stop offset="100%" stop-color="#9333EA" />
    </linearGradient>
    <linearGradient id="gradB" x1="160" y1="0" x2="0" y2="160" gradientUnits="userSpaceOnUse">
      <stop offset="0%" stop-color="#9333EA" />
      <stop offset="50%" stop-color="#6366F1" />
      <stop offset="100%" stop-color="#2563EB" />
    </linearGradient>
    <filter id="soft" x="-20%" y="-20%" width="140%" height="140%" filterUnits="objectBoundingBox" color-interpolation-filters="sRGB">
      <feGaussianBlur in="SourceGraphic" stdDeviation="6" result="blur" />
      <feColorMatrix in="blur" type="matrix" values="0 0 0 0 0  0 0 0 0 0  0 0 0 0 0  0 0 0 0.25 0" />
    </filter>
  </defs>

  <!-- Left stroke of A -->
  <path d="M46 140L18 140L70 20C73 13 79 8 86.5 8C94 8 100 13 103 20L155 140H127L100.5 75C97.5 68 92.5 64.5 86.5 64.5C80.5 64.5 75.5 68 72.5 75L46 140Z" fill="url(#gradA)" />

  <!-- Inner right overlay for depth -->
  <path d="M127 140H155L118 59.5C115 53.5 108.5 48 100.5 48C92.5 48 86 53.5 83 59.5L66 96L72.5 75C75.5 68 80.5 64.5 86.5 64.5C92.5 64.5 97.5 68 100.5 75L127 140Z" fill="url(#gradB)" opacity="0.55" />

  <!-- Balance circle -->
  <circle cx="86.5" cy="102" r="15" fill="white" />
  <circle cx="86.5" cy="102" r="11" fill="url(#gradB)" />

  <!-- Ambient glow -->
  <g filter="url(#soft)" opacity="0.55">
    <circle cx="86" cy="102" r="34" fill="url(#gradA)" />
  </g>
</svg>
